<svg id="Grupo_1" data-name="Grupo 1" xmlns="http://www.w3.org/2000/svg" width="273.618" height="273.618" viewBox="0 0 273.618 273.618">
  <path id="Trazado_1" data-name="Trazado 1" d="M64.195,60.313l8.826,29.594L55.888,147.02,80.55,132.742,93.53,89.908,88.857,74.591,115.6,89.908l-1.817,1.3-8.307,27.518L154.8,90.167,9.16,6.057l25.181,84.11L9.16,174.018,34.081,159.74,55.109,89.908,42.389,47.593Z" transform="translate(70.538 46.642)" fill-rule="evenodd"/>
  <path id="Trazado_2" data-name="Trazado 2" d="M136.809,0a136.809,136.809,0,0,1,0,273.618C61.266,273.359,0,212.093,0,136.809A136.827,136.827,0,0,1,136.809,0Zm0,22.326A114.224,114.224,0,1,0,251.033,136.55,114.226,114.226,0,0,0,136.809,22.326Z" fill-rule="evenodd"/>
</svg>
