<svg xmlns="http://www.w3.org/2000/svg" width="14.057" height="14.057" viewBox="0 0 14.057 14.057">
  <path id="commentroundtyping" d="M7.029,14.057A6.825,6.825,0,0,1,3.006,12.78a3.284,3.284,0,0,1-1.277.934A4.324,4.324,0,0,1,0,14.057q.343,0,.6-1.05a12.147,12.147,0,0,0,.282-2.588A6.862,6.862,0,0,1,0,7.029,7.007,7.007,0,0,1,3.5.94,6.9,6.9,0,0,1,7.029,0a7.007,7.007,0,0,1,6.088,3.5,6.907,6.907,0,0,1,.94,3.528,7.007,7.007,0,0,1-3.5,6.088A6.911,6.911,0,0,1,7.029,14.057ZM4.4,6.15a.864.864,0,0,0-.625.254.879.879,0,0,0,0,1.25.864.864,0,0,0,.625.254.829.829,0,0,0,.618-.261.879.879,0,0,0,0-1.235A.829.829,0,0,0,4.4,6.15Zm2.636,0a.864.864,0,0,0-.625.254.829.829,0,0,0-.261.618.891.891,0,0,0,.886.886.884.884,0,0,0,.618-1.5A.841.841,0,0,0,7.036,6.15Zm2.636,0a.879.879,0,1,0,0,1.757.829.829,0,0,0,.618-.261.879.879,0,0,0,0-1.235.829.829,0,0,0-.618-.261Z" fill="#633dbc"/>
</svg>
