<svg id="calendar2-week-fill" xmlns="http://www.w3.org/2000/svg" width="18.367" height="18.367" viewBox="0 0 18.367 18.367">
  <path id="Trazado_12" data-name="Trazado 12" d="M16.071,3.4H2.3A1.148,1.148,0,0,0,1.148,4.546V17.173A1.148,1.148,0,0,0,2.3,18.321H16.071a1.148,1.148,0,0,0,1.148-1.148V4.546A1.148,1.148,0,0,0,16.071,3.4ZM2.3,2.25A2.3,2.3,0,0,0,0,4.546V17.173a2.3,2.3,0,0,0,2.3,2.3H16.071a2.3,2.3,0,0,0,2.3-2.3V4.546a2.3,2.3,0,0,0-2.3-2.3Z" transform="translate(0 -1.102)" fill="#777" fill-rule="evenodd"/>
  <path id="Trazado_13" data-name="Trazado 13" d="M7.324,0A.574.574,0,0,1,7.9.574v.574a.574.574,0,1,1-1.148,0V.574A.574.574,0,0,1,7.324,0ZM17.655,0a.574.574,0,0,1,.574.574v.574a.574.574,0,1,1-1.148,0V.574A.574.574,0,0,1,17.655,0Z" transform="translate(-3.306 0)" fill="#777" fill-rule="evenodd"/>
  <path id="Trazado_14" data-name="Trazado 14" d="M5.625,8.449A.574.574,0,0,1,6.2,7.875H17.678a.574.574,0,0,1,.574.574V9.6a.574.574,0,0,1-.574.574H6.2A.574.574,0,0,1,5.625,9.6Zm9.758,4.018a.574.574,0,0,1,.574-.574H17.1a.574.574,0,0,1,.574.574v1.148a.574.574,0,0,1-.574.574H15.957a.574.574,0,0,1-.574-.574Zm-3.444,0a.574.574,0,0,1,.574-.574h1.148a.574.574,0,0,1,.574.574v1.148a.574.574,0,0,1-.574.574H12.513a.574.574,0,0,1-.574-.574ZM6.2,15.911a.574.574,0,0,1,.574-.574H7.921a.574.574,0,0,1,.574.574v1.148a.574.574,0,0,1-.574.574H6.773a.574.574,0,0,1-.574-.574Zm3.444,0a.574.574,0,0,1,.574-.574h1.148a.574.574,0,0,1,.574.574v1.148a.574.574,0,0,1-.574.574H10.217a.574.574,0,0,1-.574-.574Z" transform="translate(-2.755 -3.857)" fill="#777"/>
</svg>
