<svg xmlns="http://www.w3.org/2000/svg" width="27.254" height="28.848" viewBox="0 0 27.254 28.848">
  <g id="Grupo_65" data-name="Grupo 65" transform="translate(-269 -770.197)">
    <g id="file-text" transform="translate(269 770.197)">
      <path id="Trazado_84" data-name="Trazado 84" d="M7.764,2.25H20.82a3.264,3.264,0,0,1,3.264,3.264v16.32A3.264,3.264,0,0,1,20.82,25.1H7.764A3.264,3.264,0,0,1,4.5,21.834V5.514A3.264,3.264,0,0,1,7.764,2.25Zm0,1.632A1.632,1.632,0,0,0,6.132,5.514v16.32a1.632,1.632,0,0,0,1.632,1.632H20.82a1.632,1.632,0,0,0,1.632-1.632V5.514A1.632,1.632,0,0,0,20.82,3.882Z" transform="translate(-4.5 -2.25)" fill-rule="evenodd"/>
      <path id="Trazado_85" data-name="Trazado 85" d="M10.125,19.608a.816.816,0,0,1,.816-.816h4.9a.816.816,0,1,1,0,1.632h-4.9A.816.816,0,0,1,10.125,19.608Zm0-3.264a.816.816,0,0,1,.816-.816h9.792a.816.816,0,0,1,0,1.632H10.941A.816.816,0,0,1,10.125,16.344Zm0-3.264a.816.816,0,0,1,.816-.816h9.792a.816.816,0,0,1,0,1.632H10.941A.816.816,0,0,1,10.125,13.08Zm0-3.264A.816.816,0,0,1,10.941,9h9.792a.816.816,0,0,1,0,1.632H10.941A.816.816,0,0,1,10.125,9.816Z" transform="translate(-6.045 -4.104)" fill-rule="evenodd"/>
      <path id="Trazado_85_-_Contorno" data-name="Trazado 85 - Contorno" d="M15.837,20.549h-4.9a.941.941,0,0,1,0-1.882h4.9a.941.941,0,1,1,0,1.882Zm-4.9-1.632a.691.691,0,0,0,0,1.382h4.9a.691.691,0,1,0,0-1.382Zm9.792-1.632H10.941a.941.941,0,0,1,0-1.882h9.792a.941.941,0,1,1,0,1.882Zm-9.792-1.632a.691.691,0,0,0,0,1.382h9.792a.691.691,0,1,0,0-1.382Zm9.792-1.632H10.941a.941.941,0,0,1,0-1.882h9.792a.941.941,0,1,1,0,1.882Zm-9.792-1.632a.691.691,0,0,0,0,1.382h9.792a.691.691,0,1,0,0-1.382Zm9.792-1.632H10.941a.941.941,0,0,1,0-1.882h9.792a.941.941,0,0,1,0,1.882ZM10.941,9.125a.691.691,0,0,0,0,1.382h9.792a.691.691,0,0,0,0-1.382Z" transform="translate(-6.045 -4.104)" fill="#e7ebf1"/>
    </g>
    <g id="stop" transform="translate(277.494 777.174)">
      <path id="Trazado_86" data-name="Trazado 86" d="M1.515,0H13.2V20.765H1.515l-6.6-9.1,6,.706Z" transform="translate(5.565 0.554)" fill="#fff"/>
      <g id="Grupo_38" data-name="Grupo 38" transform="translate(0 1.806)">
        <g id="Grupo_37" data-name="Grupo 37" transform="translate(0)">
          <path id="Trazado_77" data-name="Trazado 77" d="M58.92,45.375a1.808,1.808,0,0,0-1.806,1.806.451.451,0,1,0,.9,0,.9.9,0,0,1,1.806,0v9.481a4.972,4.972,0,0,1-4.966,4.966h-2.6a6.051,6.051,0,0,1-5.142-3.037L43.67,53.013a.9.9,0,0,1-.1-.414.919.919,0,0,1,1.667-.5l2.287,2.182a1.354,1.354,0,0,0,2.367-.9V44.472a.9.9,0,0,1,1.806,0,.451.451,0,1,0,.9,0,1.806,1.806,0,0,0-3.612,0v8.912a.441.441,0,0,1-.291.422.457.457,0,0,1-.524-.148L45.907,51.5a1.8,1.8,0,0,0-3.02,1.958l3.458,5.6a6.941,6.941,0,0,0,5.911,3.468h2.6a5.876,5.876,0,0,0,5.869-5.869V47.181A1.808,1.808,0,0,0,58.92,45.375Z" transform="translate(-42.667 -42.666)" fill="#181818"/>
          <path id="Trazado_77_-_Contorno" data-name="Trazado 77 - Contorno" d="M50.794,42.466h0A2.008,2.008,0,0,1,52.8,44.472a.651.651,0,0,1-1.3,0,.7.7,0,0,0-1.406,0v8.912a1.543,1.543,0,0,1-1,1.453,1.546,1.546,0,0,1-1.708-.414l-2.3-2.2a.742.742,0,0,0-.593-.31.688.688,0,0,0-.642,1l3.438,5.571a5.855,5.855,0,0,0,4.972,2.942h2.6a4.772,4.772,0,0,0,4.766-4.766V47.181a.7.7,0,0,0-1.406,0,.651.651,0,0,1-1.3,0,2.006,2.006,0,1,1,4.012,0v9.481a6.076,6.076,0,0,1-6.069,6.069h-2.6a7.14,7.14,0,0,1-6.082-3.564L42.71,53.552a2.005,2.005,0,0,1,3.346-2.185l2.266,2.158a.287.287,0,0,0,.215.112.247.247,0,0,0,.088-.016.24.24,0,0,0,.163-.235V44.472A2.008,2.008,0,0,1,50.794,42.466Zm1.354,2.257a.252.252,0,0,0,.251-.251,1.606,1.606,0,0,0-3.212,0v8.912a.637.637,0,0,1-.421.609.645.645,0,0,1-.231.043.675.675,0,0,1-.506-.238l-2.282-2.175a1.6,1.6,0,0,0-2.688,1.737l3.455,5.6a6.744,6.744,0,0,0,5.741,3.373h2.6a5.676,5.676,0,0,0,5.669-5.669V47.181a1.606,1.606,0,1,0-3.212,0,.251.251,0,1,0,.5,0,1.1,1.1,0,0,1,2.206,0v9.481a5.172,5.172,0,0,1-5.166,5.166h-2.6A6.251,6.251,0,0,1,46.942,58.7L43.492,53.1a1.088,1.088,0,0,1,1-1.588,1.146,1.146,0,0,1,.9.45l2.289,2.184a1.154,1.154,0,0,0,2.017-.766V44.472a1.1,1.1,0,0,1,2.206,0A.252.252,0,0,0,52.148,44.723Z" transform="translate(-42.667 -42.666)" fill="#181818"/>
        </g>
      </g>
      <g id="Grupo_34" data-name="Grupo 34" transform="translate(9.03)">
        <g id="Grupo_33" data-name="Grupo 33">
          <path id="Trazado_75" data-name="Trazado 75" d="M257.806,0A1.808,1.808,0,0,0,256,1.806v9.481a.451.451,0,1,0,.9,0V1.806a.9.9,0,1,1,1.806,0v9.481a.451.451,0,1,0,.9,0V1.806A1.808,1.808,0,0,0,257.806,0Z" transform="translate(-256)" fill="#181818"/>
          <path id="Trazado_75_-_Contorno" data-name="Trazado 75 - Contorno" d="M257.806-.2a2.008,2.008,0,0,1,2.006,2.006v9.481a.651.651,0,1,1-1.3,0V1.806a.7.7,0,1,0-1.406,0v9.481a.652.652,0,0,1-1.3,0V1.806A2.008,2.008,0,0,1,257.806-.2Zm1.354,11.738a.252.252,0,0,0,.251-.251V1.806a1.606,1.606,0,1,0-3.212,0v9.481a.251.251,0,0,0,.5,0V1.806a1.1,1.1,0,1,1,2.206,0v9.481A.252.252,0,0,0,259.16,11.538Z" transform="translate(-256)" fill="#181818"/>
        </g>
      </g>
      <g id="Grupo_36" data-name="Grupo 36" transform="translate(11.738 1.806)">
        <g id="Grupo_35" data-name="Grupo 35">
          <path id="Trazado_76" data-name="Trazado 76" d="M321.806,42.667A1.808,1.808,0,0,0,320,44.473a.451.451,0,0,0,.9,0,.9.9,0,0,1,1.806,0v7.675a.451.451,0,1,0,.9,0V44.473A1.808,1.808,0,0,0,321.806,42.667Z" transform="translate(-320 -42.667)" fill="#181818"/>
          <path id="Trazado_76_-_Contorno" data-name="Trazado 76 - Contorno" d="M321.806,42.467a2.008,2.008,0,0,1,2.006,2.006v7.675a.652.652,0,0,1-1.3,0V44.473a.7.7,0,1,0-1.406,0,.652.652,0,0,1-1.3,0A2.008,2.008,0,0,1,321.806,42.467ZM323.16,52.4a.252.252,0,0,0,.252-.251V44.473a1.606,1.606,0,0,0-3.212,0,.251.251,0,0,0,.5,0,1.1,1.1,0,1,1,2.206,0v7.675A.252.252,0,0,0,323.16,52.4Z" transform="translate(-320 -42.667)" fill="#181818"/>
        </g>
      </g>
    </g>
  </g>
</svg>
