<svg id="Frame" xmlns="http://www.w3.org/2000/svg" width="13.289" height="13.289" viewBox="0 0 13.289 13.289">
  <path id="Vector" d="M0,0H13.289V13.289H0Z" fill="none"/>
  <path id="Vector-2" data-name="Vector" d="M0,11.747a4.43,4.43,0,0,1,8.859,0ZM4.43,6.764A3.322,3.322,0,1,1,7.752,3.442,3.321,3.321,0,0,1,4.43,6.764ZM9.549,1.329a5.555,5.555,0,0,1,0,4.226L8.62,4.879A4.453,4.453,0,0,0,8.621,2l.928-.676ZM11.377,0a7.769,7.769,0,0,1,0,6.883l-.911-.662a6.663,6.663,0,0,0,0-5.559L11.377,0Z" transform="translate(0.554 0.434)" fill="#181818"/>
</svg>
