<svg xmlns="http://www.w3.org/2000/svg" xmlns:xlink="http://www.w3.org/1999/xlink" width="57" height="57" viewBox="0 0 57 57">
  <defs>
    <clipPath id="clip-path">
      <rect id="Rectángulo_5" data-name="Rectángulo 5" width="57" height="57" transform="translate(0.366 0)" fill="#fff" stroke="#707070" stroke-width="1"/>
    </clipPath>
    <linearGradient id="linear-gradient" x1="0.076" y1="0.076" x2="0.866" y2="0.866" gradientUnits="objectBoundingBox">
      <stop offset="0" stop-color="#7b55d3"/>
      <stop offset="1" stop-color="#633dbc"/>
    </linearGradient>
    <linearGradient id="linear-gradient-2" x1="0.5" y1="0.135" x2="0.5" y2="0.91" gradientUnits="objectBoundingBox">
      <stop offset="0" stop-color="#52198a" stop-opacity="0"/>
      <stop offset="1" stop-color="#633dbc"/>
    </linearGradient>
    <linearGradient id="linear-gradient-3" x1="0.829" y1="0.886" x2="0.338" y2="0.467" xlink:href="#linear-gradient"/>
    <linearGradient id="linear-gradient-4" x1="0.153" y1="0.329" x2="0.629" y2="0.767" gradientUnits="objectBoundingBox">
      <stop offset="0" stop-color="#eef4ff"/>
      <stop offset="1" stop-color="#cfe7fd"/>
    </linearGradient>
    <linearGradient id="linear-gradient-5" x1="0.505" y1="0.656" x2="0.602" y2="0.822" gradientUnits="objectBoundingBox">
      <stop offset="0" stop-color="#8aaadc" stop-opacity="0"/>
      <stop offset="1" stop-color="#8aaadc"/>
    </linearGradient>
  </defs>
  <g id="Enmascarar_grupo_2" data-name="Enmascarar grupo 2" transform="translate(-0.366)" clip-path="url(#clip-path)">
    <g id="youtube" transform="translate(0.305 0.305)">
      <path id="Trazado_42" data-name="Trazado 42" d="M44.846,0h-33A11.849,11.849,0,0,0,0,11.849v33A11.849,11.849,0,0,0,11.849,56.7h33A11.849,11.849,0,0,0,56.7,44.846v-33A11.849,11.849,0,0,0,44.846,0ZM9.783,52.485a.764.764,0,0,1-.764.764H5.989a.764.764,0,0,1-.764-.764v-3.03a.764.764,0,0,1,.764-.764h3.03a.764.764,0,0,1,.764.764Zm0-45.245A.764.764,0,0,1,9.019,8H5.989a.764.764,0,0,1-.764-.764V4.21a.764.764,0,0,1,.764-.764h3.03a.764.764,0,0,1,.764.764ZM18.12,52.485a.764.764,0,0,1-.764.764h-3.03a.764.764,0,0,1-.764-.764v-3.03a.764.764,0,0,1,.764-.764h3.03a.764.764,0,0,1,.764.764Zm0-45.245A.764.764,0,0,1,17.357,8h-3.03a.764.764,0,0,1-.764-.764V4.21a.764.764,0,0,1,.764-.764h3.03a.764.764,0,0,1,.764.764Zm8.338,45.245a.764.764,0,0,1-.764.764h-3.03a.764.764,0,0,1-.764-.764v-3.03a.764.764,0,0,1,.764-.764h3.03a.764.764,0,0,1,.764.764Zm0-45.245A.764.764,0,0,1,25.694,8h-3.03A.764.764,0,0,1,21.9,7.24V4.21a.764.764,0,0,1,.764-.764h3.03a.764.764,0,0,1,.764.764ZM34.8,52.485a.764.764,0,0,1-.764.764H31a.764.764,0,0,1-.764-.764v-3.03A.764.764,0,0,1,31,48.691h3.03a.764.764,0,0,1,.764.764Zm0-45.245A.764.764,0,0,1,34.032,8H31a.764.764,0,0,1-.764-.764V4.21A.764.764,0,0,1,31,3.446h3.03a.764.764,0,0,1,.764.764Zm8.338,45.245a.764.764,0,0,1-.764.764h-3.03a.764.764,0,0,1-.764-.764v-3.03a.764.764,0,0,1,.764-.764h3.03a.764.764,0,0,1,.764.764Zm0-45.245A.764.764,0,0,1,42.369,8h-3.03a.764.764,0,0,1-.764-.764V4.21a.764.764,0,0,1,.764-.764h3.03a.764.764,0,0,1,.764.764Zm8.338,45.245a.764.764,0,0,1-.764.764h-3.03a.764.764,0,0,1-.764-.764v-3.03a.764.764,0,0,1,.764-.764h3.03a.764.764,0,0,1,.764.764Zm0-45.245A.764.764,0,0,1,50.707,8h-3.03a.764.764,0,0,1-.764-.764V4.21a.764.764,0,0,1,.764-.764h3.03a.764.764,0,0,1,.764.764Z" fill="url(#linear-gradient)"/>
      <path id="Trazado_43" data-name="Trazado 43" d="M0,64.872v6.534A11.849,11.849,0,0,0,11.849,83.255h33A11.849,11.849,0,0,0,56.7,71.406V64.872ZM9.783,79.045a.764.764,0,0,1-.764.764H5.989a.764.764,0,0,1-.764-.764v-3.03a.764.764,0,0,1,.764-.764h3.03a.764.764,0,0,1,.764.764Zm8.338,0a.764.764,0,0,1-.764.764h-3.03a.764.764,0,0,1-.764-.764v-3.03a.764.764,0,0,1,.764-.764h3.03a.764.764,0,0,1,.764.764Zm8.338,0a.764.764,0,0,1-.764.764h-3.03a.764.764,0,0,1-.764-.764v-3.03a.764.764,0,0,1,.764-.764h3.03a.764.764,0,0,1,.764.764Zm8.338,0a.764.764,0,0,1-.764.764H31a.764.764,0,0,1-.764-.764v-3.03A.764.764,0,0,1,31,75.251h3.03a.764.764,0,0,1,.764.764Zm8.338,0a.764.764,0,0,1-.764.764h-3.03a.764.764,0,0,1-.764-.764v-3.03a.764.764,0,0,1,.764-.764h3.03a.764.764,0,0,1,.764.764Zm8.338,0a.764.764,0,0,1-.764.764h-3.03a.764.764,0,0,1-.764-.764v-3.03a.764.764,0,0,1,.764-.764h3.03a.764.764,0,0,1,.764.764Z" transform="translate(0 -26.56)" fill="url(#linear-gradient-2)"/>
      <path id="Trazado_44" data-name="Trazado 44" d="M30.527,53.672a8.564,8.564,0,0,1-8.554-8.554V25.244a8.53,8.53,0,0,1,12.815-7.4L52,27.782a8.543,8.543,0,0,1,0,14.8L34.788,52.517a8.542,8.542,0,0,1-4.261,1.155h0Z" transform="translate(-8.996 -6.833)" fill="#633dbc"/>
      <path id="Trazado_45" data-name="Trazado 45" d="M67.313,53.413V46.108l-13.23-13.23a6.57,6.57,0,0,0-1.8-1.517L35.745,21.812a6.542,6.542,0,0,0-9.813,5.666v19.1a6.456,6.456,0,0,0,2.359,5.032l5.652,5.652h2.368a.764.764,0,0,1,.764.764v2.368l4.872,4.872H55.463A11.849,11.849,0,0,0,67.312,53.413ZM57.53,58.022a.764.764,0,0,1,.764-.764h3.03a.764.764,0,0,1,.764.764v3.03a.764.764,0,0,1-.764.764h-3.03a.764.764,0,0,1-.764-.764Zm-12.117,3.03a.764.764,0,0,1-.764.764h-3.03a.764.764,0,0,1-.764-.764v-3.03a.764.764,0,0,1,.764-.764h3.03a.764.764,0,0,1,.764.764Zm8.338,0a.764.764,0,0,1-.764.764h-3.03a.764.764,0,0,1-.764-.764v-3.03a.764.764,0,0,1,.764-.764h3.03a.764.764,0,0,1,.764.764Z" transform="translate(-10.617 -8.567)" fill="url(#linear-gradient-3)"/>
      <path id="Trazado_46" data-name="Trazado 46" d="M52.1,31.172,35.557,21.624a6.542,6.542,0,0,0-9.813,5.666v19.1a6.542,6.542,0,0,0,9.813,5.666L52.1,42.5a6.542,6.542,0,0,0,0-11.331Z" transform="translate(-10.54 -8.49)" fill="url(#linear-gradient-4)"/>
      <path id="Trazado_47" data-name="Trazado 47" d="M52.1,31.172,35.557,21.624a6.542,6.542,0,0,0-9.813,5.666v19.1a6.542,6.542,0,0,0,9.813,5.666L52.1,42.5a6.542,6.542,0,0,0,0-11.331Z" transform="translate(-10.54 -8.49)" fill="url(#linear-gradient-5)"/>
    </g>
  </g>
</svg>
