<svg xmlns="http://www.w3.org/2000/svg" width="17.404" height="19.89" viewBox="0 0 17.404 19.89">
  <g id="Grupo_4" data-name="Grupo 4" transform="translate(-1.664 -1.966)">
    <g id="bell" transform="translate(1.664 1.966)">
      <path id="Trazado_15" data-name="Trazado 15" d="M15.986,33.986A2.486,2.486,0,0,0,18.473,31.5H13.5A2.486,2.486,0,0,0,15.986,33.986Z" transform="translate(-7.284 -14.096)" fill="#777"/>
      <path id="Trazado_16" data-name="Trazado 16" d="M10.952,2.385l-.991.2A4.975,4.975,0,0,0,5.979,7.459a26.935,26.935,0,0,1-.571,4.652,16.049,16.049,0,0,1-.824,2.807H17.319a16.193,16.193,0,0,1-.824-2.807,27.033,27.033,0,0,1-.57-4.652,4.975,4.975,0,0,0-3.982-4.873l-.991-.2Zm7.732,12.533a3.163,3.163,0,0,0,.97,1.243H2.25a3.163,3.163,0,0,0,.97-1.243A22.014,22.014,0,0,0,4.736,7.459,6.218,6.218,0,0,1,9.715,1.367a1.243,1.243,0,1,1,2.474,0,6.218,6.218,0,0,1,4.979,6.093,22.014,22.014,0,0,0,1.517,7.459Z" transform="translate(-2.25 -0.001)" fill="#777" fill-rule="evenodd"/>
    </g>
  </g>
</svg>
