<svg xmlns="http://www.w3.org/2000/svg" width="245.616" height="140.201" viewBox="0 0 245.616 140.201">
  <g id="Text" transform="translate(-65.284 -349.103)">
    <path id="Better_Chat_Better_Communicate" data-name="Better Chat, Better Communicate" d="M18.108,5.72V6.9H14.924V17H13.468V6.9H10.284V5.72Zm6.064,2.352a3.28,3.28,0,0,1,2.48.984A3.943,3.943,0,0,1,27.6,11.9V17H26.14V12.024a2.806,2.806,0,0,0-.672-2.016,2.4,2.4,0,0,0-1.824-.7,2.494,2.494,0,0,0-1.92.776A3.214,3.214,0,0,0,21,12.344V17H19.548V5.16H21V10.3A2.992,2.992,0,0,1,22.2,8.648,3.456,3.456,0,0,1,24.172,8.072ZM37.916,12.12a4.336,4.336,0,0,1-.064.8H30.828a3.079,3.079,0,0,0,.856,2.256,2.793,2.793,0,0,0,1.976.752,2.856,2.856,0,0,0,1.768-.536A2.216,2.216,0,0,0,36.3,13.96h1.552a3.667,3.667,0,0,1-2.144,2.752,4.742,4.742,0,0,1-1.984.4,4.523,4.523,0,0,1-2.24-.544,3.844,3.844,0,0,1-1.528-1.56,4.937,4.937,0,0,1-.552-2.392,4.983,4.983,0,0,1,.552-2.4,3.832,3.832,0,0,1,1.528-1.568,4.523,4.523,0,0,1,2.24-.544,4.422,4.422,0,0,1,2.232.544A3.746,3.746,0,0,1,37.412,10.1,4.1,4.1,0,0,1,37.916,12.12Zm-1.472.1a2.988,2.988,0,0,0-.32-1.632,2.339,2.339,0,0,0-1.008-.976,3.069,3.069,0,0,0-1.392-.32,2.881,2.881,0,0,0-2.016.744,3,3,0,0,0-.88,2.184Zm13.712-6.5V6.9H45.228v3.9H49.4v1.136H45.228V17H43.772V5.72ZM55.484,8.1a3.609,3.609,0,0,1,2.168.64,3.336,3.336,0,0,1,1.24,1.712V8.216h1.456V17H58.892V14.76a3.336,3.336,0,0,1-1.24,1.712,3.609,3.609,0,0,1-2.168.64,3.982,3.982,0,0,1-2.08-.544,3.763,3.763,0,0,1-1.432-1.56,5.186,5.186,0,0,1-.52-2.392,5.236,5.236,0,0,1,.52-2.4A3.752,3.752,0,0,1,53.4,8.648,3.982,3.982,0,0,1,55.484,8.1ZM55.9,9.4a2.82,2.82,0,0,0-2.152.856,3.3,3.3,0,0,0-.808,2.36,3.3,3.3,0,0,0,.808,2.36,2.82,2.82,0,0,0,2.152.856,2.988,2.988,0,0,0,1.544-.4A2.785,2.785,0,0,0,58.508,14.3a3.566,3.566,0,0,0,.384-1.688,3.614,3.614,0,0,0-.384-1.7,2.719,2.719,0,0,0-1.064-1.128A3.035,3.035,0,0,0,55.9,9.4Zm9.52-1.3a3.545,3.545,0,0,1,2.392.776,3.268,3.268,0,0,1,1.1,2.088H67.516a2.016,2.016,0,0,0-.648-1.288,2.11,2.11,0,0,0-1.48-.5,1.826,1.826,0,0,0-1.224.376,1.268,1.268,0,0,0-.44,1.016,1.049,1.049,0,0,0,.3.776,1.9,1.9,0,0,0,.736.448,12.278,12.278,0,0,0,1.208.328,11.867,11.867,0,0,1,1.576.456,2.469,2.469,0,0,1,1.024.744,2.09,2.09,0,0,1,.424,1.376,2.162,2.162,0,0,1-.808,1.744,3.258,3.258,0,0,1-2.152.672,4.122,4.122,0,0,1-2.56-.752,3,3,0,0,1-1.168-2.1h1.408a1.833,1.833,0,0,0,.7,1.3,2.511,2.511,0,0,0,1.624.5,1.688,1.688,0,0,0,1.176-.384,1.3,1.3,0,0,0,.424-1.008,1.1,1.1,0,0,0-.3-.816,1.993,1.993,0,0,0-.752-.464,11,11,0,0,0-1.232-.336,12.023,12.023,0,0,1-1.56-.448,2.391,2.391,0,0,1-.992-.712,1.993,1.993,0,0,1-.408-1.32A2.21,2.21,0,0,1,63.2,8.784,3.368,3.368,0,0,1,65.42,8.1Zm9.712,7.616V17H74.044a2.794,2.794,0,0,1-2.008-.64,2.89,2.89,0,0,1-.664-2.144V9.48H70.06V8.216h1.312V6.024h1.472V8.216h2.272V9.48H72.844v4.768a1.642,1.642,0,0,0,.312,1.16,1.5,1.5,0,0,0,1.08.312Zm9.856-3.6a4.335,4.335,0,0,1-.064.8H77.9a3.079,3.079,0,0,0,.856,2.256,2.793,2.793,0,0,0,1.976.752,2.856,2.856,0,0,0,1.768-.536,2.216,2.216,0,0,0,.872-1.432h1.552a3.667,3.667,0,0,1-2.144,2.752,4.742,4.742,0,0,1-1.984.4,4.523,4.523,0,0,1-2.24-.544,3.844,3.844,0,0,1-1.528-1.56,4.937,4.937,0,0,1-.552-2.392,4.983,4.983,0,0,1,.552-2.4,3.832,3.832,0,0,1,1.528-1.568A4.523,4.523,0,0,1,80.8,8.1a4.422,4.422,0,0,1,2.232.544A3.746,3.746,0,0,1,84.484,10.1,4.1,4.1,0,0,1,84.988,12.12Zm-1.472.1a2.988,2.988,0,0,0-.32-1.632,2.339,2.339,0,0,0-1.008-.976,3.069,3.069,0,0,0-1.392-.32,2.881,2.881,0,0,0-2.016.744,3,3,0,0,0-.88,2.184ZM89.644,8.1a3.545,3.545,0,0,1,2.392.776,3.268,3.268,0,0,1,1.1,2.088H91.74a2.016,2.016,0,0,0-.648-1.288,2.11,2.11,0,0,0-1.48-.5,1.826,1.826,0,0,0-1.224.376,1.268,1.268,0,0,0-.44,1.016,1.049,1.049,0,0,0,.3.776,1.9,1.9,0,0,0,.736.448,12.278,12.278,0,0,0,1.208.328,11.867,11.867,0,0,1,1.576.456,2.469,2.469,0,0,1,1.024.744,2.09,2.09,0,0,1,.424,1.376A2.162,2.162,0,0,1,92.4,16.44a3.258,3.258,0,0,1-2.152.672,4.122,4.122,0,0,1-2.56-.752,3,3,0,0,1-1.168-2.1h1.408a1.833,1.833,0,0,0,.7,1.3,2.511,2.511,0,0,0,1.624.5,1.688,1.688,0,0,0,1.176-.384,1.3,1.3,0,0,0,.424-1.008,1.1,1.1,0,0,0-.3-.816,1.993,1.993,0,0,0-.752-.464,11,11,0,0,0-1.232-.336A12.023,12.023,0,0,1,88,12.6a2.391,2.391,0,0,1-.992-.712,1.993,1.993,0,0,1-.408-1.32,2.21,2.21,0,0,1,.816-1.784A3.368,3.368,0,0,1,89.644,8.1Zm9.712,7.616V17H98.268a2.794,2.794,0,0,1-2.008-.64,2.89,2.89,0,0,1-.664-2.144V9.48H94.284V8.216H95.6V6.024h1.472V8.216H99.34V9.48H97.068v4.768a1.642,1.642,0,0,0,.312,1.16,1.5,1.5,0,0,0,1.08.312Zm12.864-1.648a3,3,0,0,1-.384,1.488,2.891,2.891,0,0,1-1.168,1.12,3.967,3.967,0,0,1-1.936.432,4.649,4.649,0,0,1-1.992-.408,3.544,3.544,0,0,1-1.392-1.12,3.169,3.169,0,0,1-.6-1.624H106.3a2.2,2.2,0,0,0,1.128,1.688,2.5,2.5,0,0,0,1.256.3,1.992,1.992,0,0,0,1.472-.512,1.776,1.776,0,0,0,.512-1.312,1.691,1.691,0,0,0-.36-1.12,2.551,2.551,0,0,0-.888-.68,12.068,12.068,0,0,0-1.44-.536,14.563,14.563,0,0,1-1.72-.664,2.937,2.937,0,0,1-1.1-.936,2.73,2.73,0,0,1-.456-1.648,2.846,2.846,0,0,1,.424-1.552,2.779,2.779,0,0,1,1.216-1.04,4.386,4.386,0,0,1,1.864-.368,4.013,4.013,0,0,1,2.64.808A3.092,3.092,0,0,1,111.98,8.44h-1.568a2.121,2.121,0,0,0-.688-1.184,2.166,2.166,0,0,0-1.52-.512A2.079,2.079,0,0,0,106.8,7.2a1.61,1.61,0,0,0-.528,1.288,1.6,1.6,0,0,0,.344,1.064,2.394,2.394,0,0,0,.856.64,13.779,13.779,0,0,0,1.408.52,14.28,14.28,0,0,1,1.752.672,2.96,2.96,0,0,1,1.128.968A2.894,2.894,0,0,1,112.22,14.072Zm6.144,1.648V17h-1.088a2.794,2.794,0,0,1-2.008-.64,2.89,2.89,0,0,1-.664-2.144V9.48h-1.312V8.216H114.6V6.024h1.472V8.216h2.272V9.48h-2.272v4.768a1.642,1.642,0,0,0,.312,1.16,1.5,1.5,0,0,0,1.08.312ZM121.6,9.992a3.231,3.231,0,0,1,1.264-1.416,3.757,3.757,0,0,1,1.984-.5V9.656H124.4a3.111,3.111,0,0,0-2.016.632,2.531,2.531,0,0,0-.784,2.088V17H120.14V8.216H121.6Zm12.768,2.128a4.336,4.336,0,0,1-.064.8h-7.024a3.079,3.079,0,0,0,.856,2.256,2.793,2.793,0,0,0,1.976.752,2.856,2.856,0,0,0,1.768-.536,2.216,2.216,0,0,0,.872-1.432H134.3a3.667,3.667,0,0,1-2.144,2.752,4.742,4.742,0,0,1-1.984.4,4.523,4.523,0,0,1-2.24-.544,3.844,3.844,0,0,1-1.528-1.56,4.937,4.937,0,0,1-.552-2.392,4.983,4.983,0,0,1,.552-2.4,3.832,3.832,0,0,1,1.528-1.568,4.523,4.523,0,0,1,2.24-.544,4.422,4.422,0,0,1,2.232.544A3.746,3.746,0,0,1,133.86,10.1,4.1,4.1,0,0,1,134.364,12.12Zm-1.472.1a2.988,2.988,0,0,0-.32-1.632,2.339,2.339,0,0,0-1.008-.976,3.069,3.069,0,0,0-1.392-.32,2.881,2.881,0,0,0-2.016.744,3,3,0,0,0-.88,2.184ZM139.868,8.1a3.609,3.609,0,0,1,2.168.64,3.336,3.336,0,0,1,1.24,1.712V8.216h1.456V17h-1.456V14.76a3.336,3.336,0,0,1-1.24,1.712,3.609,3.609,0,0,1-2.168.64,3.982,3.982,0,0,1-2.08-.544,3.763,3.763,0,0,1-1.432-1.56,5.186,5.186,0,0,1-.52-2.392,5.236,5.236,0,0,1,.52-2.4,3.752,3.752,0,0,1,1.432-1.568A3.982,3.982,0,0,1,139.868,8.1Zm.416,1.3a2.82,2.82,0,0,0-2.152.856,3.3,3.3,0,0,0-.808,2.36,3.3,3.3,0,0,0,.808,2.36,2.82,2.82,0,0,0,2.152.856,2.988,2.988,0,0,0,1.544-.4,2.785,2.785,0,0,0,1.064-1.128,3.566,3.566,0,0,0,.384-1.688,3.614,3.614,0,0,0-.384-1.7,2.719,2.719,0,0,0-1.064-1.128A3.035,3.035,0,0,0,140.284,9.4Zm17.568-1.328a3.254,3.254,0,0,1,2.472.984,3.965,3.965,0,0,1,.936,2.84V17H159.8V12.024a2.832,2.832,0,0,0-.632-1.984,2.24,2.24,0,0,0-1.736-.688,2.385,2.385,0,0,0-1.848.76,3.2,3.2,0,0,0-.7,2.232V17h-1.456V12.024a2.809,2.809,0,0,0-.64-1.984,2.246,2.246,0,0,0-1.728-.688,2.4,2.4,0,0,0-1.864.76,3.2,3.2,0,0,0-.7,2.232V17h-1.456V8.216h1.456v2a2.854,2.854,0,0,1,1.144-1.592,3.572,3.572,0,0,1,3.84.016,3.091,3.091,0,0,1,1.176,1.672A3.175,3.175,0,0,1,155.9,8.656,3.406,3.406,0,0,1,157.852,8.072ZM163.26,5.64a.836.836,0,0,1,.272-.648,1.169,1.169,0,0,1,1.44,0,.836.836,0,0,1,.272.648.836.836,0,0,1-.272.648,1.169,1.169,0,0,1-1.44,0A.836.836,0,0,1,163.26,5.64Zm1.712,2.576V17h-1.456V8.216Zm6.96-.144a3.28,3.28,0,0,1,2.48.984,3.943,3.943,0,0,1,.944,2.84V17H173.9V12.024a2.806,2.806,0,0,0-.672-2.016,2.4,2.4,0,0,0-1.824-.7,2.494,2.494,0,0,0-1.92.776,3.214,3.214,0,0,0-.72,2.264V17h-1.456V8.216h1.456V10.3a2.992,2.992,0,0,1,1.192-1.648A3.456,3.456,0,0,1,171.932,8.072ZM181.2,8.1a3.609,3.609,0,0,1,2.168.64,3.336,3.336,0,0,1,1.24,1.712V8.216h1.456v8.928a4.458,4.458,0,0,1-.512,2.16,3.677,3.677,0,0,1-1.44,1.472,4.293,4.293,0,0,1-2.16.528,4.637,4.637,0,0,1-2.9-.856,3.777,3.777,0,0,1-1.424-2.312h1.44a2.494,2.494,0,0,0,.968,1.384,3.1,3.1,0,0,0,1.832.5,2.687,2.687,0,0,0,1.96-.76,2.832,2.832,0,0,0,.776-2.12V14.76a3.336,3.336,0,0,1-1.24,1.712,3.609,3.609,0,0,1-2.168.64,3.982,3.982,0,0,1-2.08-.544,3.763,3.763,0,0,1-1.432-1.56,5.186,5.186,0,0,1-.52-2.392,5.236,5.236,0,0,1,.52-2.4,3.752,3.752,0,0,1,1.432-1.568A3.982,3.982,0,0,1,181.2,8.1Zm.416,1.3a2.82,2.82,0,0,0-2.152.856,3.3,3.3,0,0,0-.808,2.36,3.3,3.3,0,0,0,.808,2.36,2.82,2.82,0,0,0,2.152.856,2.988,2.988,0,0,0,1.544-.4A2.785,2.785,0,0,0,184.22,14.3a3.566,3.566,0,0,0,.384-1.688,3.614,3.614,0,0,0-.384-1.7,2.719,2.719,0,0,0-1.064-1.128A3.035,3.035,0,0,0,181.612,9.4Zm14.7-1.3a4.66,4.66,0,0,1,2.264.544,3.893,3.893,0,0,1,1.568,1.568,4.869,4.869,0,0,1,.568,2.4,4.823,4.823,0,0,1-.568,2.392,3.906,3.906,0,0,1-1.568,1.56,4.983,4.983,0,0,1-4.528,0,3.959,3.959,0,0,1-1.576-1.56,4.77,4.77,0,0,1-.576-2.392,4.815,4.815,0,0,1,.576-2.4,3.945,3.945,0,0,1,1.576-1.568A4.66,4.66,0,0,1,196.316,8.1Zm0,1.28a3.044,3.044,0,0,0-1.448.352,2.646,2.646,0,0,0-1.072,1.08,3.638,3.638,0,0,0-.408,1.8A3.6,3.6,0,0,0,193.8,14.4a2.646,2.646,0,0,0,1.072,1.08,3.154,3.154,0,0,0,2.9,0,2.646,2.646,0,0,0,1.072-1.08,3.6,3.6,0,0,0,.408-1.784,3.638,3.638,0,0,0-.408-1.8,2.646,2.646,0,0,0-1.072-1.08A3.044,3.044,0,0,0,196.316,9.384Zm10.928-1.312a3.28,3.28,0,0,1,2.48.984,3.943,3.943,0,0,1,.944,2.84V17h-1.456V12.024a2.806,2.806,0,0,0-.672-2.016,2.4,2.4,0,0,0-1.824-.7,2.494,2.494,0,0,0-1.92.776,3.214,3.214,0,0,0-.72,2.264V17H202.62V8.216h1.456V10.3a2.992,2.992,0,0,1,1.192-1.648A3.456,3.456,0,0,1,207.244,8.072ZM218.316,6.9V10.76H222.6v1.12h-4.288v3.936h4.768V17H216.86V5.72h6.224V6.9Zm10.24,1.2a3.609,3.609,0,0,1,2.168.64,3.336,3.336,0,0,1,1.24,1.712V8.216h1.456V17h-1.456V14.76a3.336,3.336,0,0,1-1.24,1.712,3.609,3.609,0,0,1-2.168.64,3.982,3.982,0,0,1-2.08-.544,3.763,3.763,0,0,1-1.432-1.56,5.186,5.186,0,0,1-.52-2.392,5.236,5.236,0,0,1,.52-2.4,3.752,3.752,0,0,1,1.432-1.568A3.982,3.982,0,0,1,228.556,8.1Zm.416,1.3a2.82,2.82,0,0,0-2.152.856,3.3,3.3,0,0,0-.808,2.36,3.3,3.3,0,0,0,.808,2.36,2.82,2.82,0,0,0,2.152.856,2.988,2.988,0,0,0,1.544-.4A2.785,2.785,0,0,0,231.58,14.3a3.566,3.566,0,0,0,.384-1.688,3.614,3.614,0,0,0-.384-1.7,2.719,2.719,0,0,0-1.064-1.128A3.035,3.035,0,0,0,228.972,9.4Zm8.224.592a3.231,3.231,0,0,1,1.264-1.416,3.757,3.757,0,0,1,1.984-.5V9.656H240a3.111,3.111,0,0,0-2.016.632,2.531,2.531,0,0,0-.784,2.088V17H235.74V8.216H237.2Zm8.88,5.728V17h-1.088a2.794,2.794,0,0,1-2.008-.64,2.89,2.89,0,0,1-.664-2.144V9.48H241V8.216h1.312V6.024h1.472V8.216h2.272V9.48h-2.272v4.768a1.642,1.642,0,0,0,.312,1.16,1.5,1.5,0,0,0,1.08.312Zm6.4-7.648a3.28,3.28,0,0,1,2.48.984,3.943,3.943,0,0,1,.944,2.84V17h-1.456V12.024a2.806,2.806,0,0,0-.672-2.016,2.4,2.4,0,0,0-1.824-.7,2.494,2.494,0,0,0-1.92.776,3.214,3.214,0,0,0-.72,2.264V17h-1.456V5.16h1.456V10.3A2.992,2.992,0,0,1,250.5,8.648,3.456,3.456,0,0,1,252.476,8.072Z" transform="translate(55 468)" fill="#7b55d3"/>
    <g id="Grupo_2" data-name="Grupo 2" transform="translate(104 427.996)">
      <path id="Trazado_3" data-name="Trazado 3" d="M43.76,22.639V35.015H38.936V12.1H43.76v4.189a7.443,7.443,0,0,1,3.11-3.3,8.73,8.73,0,0,1,4.506-1.206c3.618,0,6.093,1.523,7.362,4.506a10.326,10.326,0,0,1,8.5-4.506,8.474,8.474,0,0,1,6.283,2.348,9.292,9.292,0,0,1,2.412,6.855V35.015H71.115V22.448c0-4.189-1.777-6.347-5.268-6.347a5.96,5.96,0,0,0-6.157,6.157V35.015H54.867V22.448a8.187,8.187,0,0,0-1.142-4.824A4.276,4.276,0,0,0,50.043,16.1a6.6,6.6,0,0,0-4.379,1.65A6.176,6.176,0,0,0,43.76,22.639Z" transform="translate(-38.936 -2.392)" fill="#181818"/>
      <path id="Trazado_4" data-name="Trazado 4" d="M60.054,12.574a3.022,3.022,0,0,1-.889-2.158,3.134,3.134,0,0,1,.889-2.158,3.022,3.022,0,0,1,2.158-.889,3.134,3.134,0,0,1,2.158.889,3.022,3.022,0,0,1,.889,2.158,3.134,3.134,0,0,1-.889,2.158,3.022,3.022,0,0,1-2.158.889A3.134,3.134,0,0,1,60.054,12.574Zm4.57,27.419H59.8V17.08h4.824Z" transform="translate(-16.133 -7.37)" fill="#181818"/>
      <path id="Trazado_5" data-name="Trazado 5" d="M69.807,39.623H64.983V7.7h4.824Z" transform="translate(-9.574 -7)" fill="#181818"/>
      <path id="Trazado_6" data-name="Trazado 6" d="M75.356,39.623H70.533V7.7h4.824Z" transform="translate(-3.318 -7)" fill="#181818"/>
      <path id="Trazado_7" data-name="Trazado 7" d="M76.7,12.574a2.784,2.784,0,0,1-.889-2.158A3.134,3.134,0,0,1,76.7,8.258,3.022,3.022,0,0,1,78.86,7.37a3.134,3.134,0,0,1,2.158.889,3.022,3.022,0,0,1,.889,2.158,3.034,3.034,0,0,1-3.047,3.047A3.022,3.022,0,0,1,76.7,12.574Zm4.506,27.419H76.385V17.08h4.824Z" transform="translate(2.635 -7.37)" fill="#181818"/>
      <path id="Trazado_8" data-name="Trazado 8" d="M92.594,35.4a11.768,11.768,0,0,1-8.251-3.237,11.189,11.189,0,0,1-3.427-8.5,11.124,11.124,0,0,1,3.618-8.568,12.439,12.439,0,0,1,8.759-3.3,12.123,12.123,0,0,1,8.759,3.554L99.195,18.83a9.233,9.233,0,0,0-5.966-2.6,7.45,7.45,0,0,0-5.2,2.031A6.673,6.673,0,0,0,85.8,23.4a7.585,7.585,0,0,0,7.616,7.553,8.268,8.268,0,0,0,6.03-2.92l2.856,3.11A13.357,13.357,0,0,1,92.594,35.4Z" transform="translate(8.386 -2.392)" fill="#181818"/>
      <path id="Trazado_9" data-name="Trazado 9" d="M112.649,34.982H108.27V31.935a9.413,9.413,0,0,1-7.616,3.427,8.655,8.655,0,0,1-5.9-2.031A6.714,6.714,0,0,1,92.4,27.936a5.8,5.8,0,0,1,2.475-5.078,11.745,11.745,0,0,1,6.728-1.65h6.22V20.32c0-3.047-1.714-4.57-5.078-4.57a11.638,11.638,0,0,0-6.6,2.348l-2.158-2.983a14.8,14.8,0,0,1,9.457-3.3,10.492,10.492,0,0,1,6.6,2.031c1.714,1.333,2.539,3.491,2.539,6.41V34.982Zm-4.824-8.5V24.509h-5.395c-3.491,0-5.2,1.079-5.2,3.3A2.886,2.886,0,0,0,98.5,30.348a7.316,7.316,0,0,0,7.616-.381A4.186,4.186,0,0,0,107.826,26.477Z" transform="translate(21.335 -2.358)" fill="#181818"/>
      <path id="Trazado_10" data-name="Trazado 10" d="M122.5,28.194a6.336,6.336,0,0,1-2.348,5.2,9.133,9.133,0,0,1-6.093,1.968,17.57,17.57,0,0,1-5.2-.889,15.583,15.583,0,0,1-4.76-2.539l2.348-3.745a12.827,12.827,0,0,0,7.743,2.983,4.1,4.1,0,0,0,2.6-.762,2.344,2.344,0,0,0,.952-1.9c0-1.142-1.523-2.158-4.57-3.11a2.148,2.148,0,0,1-.508-.19c-4.76-1.269-7.172-3.427-7.172-6.474a6.111,6.111,0,0,1,2.475-5.078,10.261,10.261,0,0,1,6.41-1.9A13.207,13.207,0,0,1,121.87,14.1l-1.777,3.554A10.917,10.917,0,0,0,114,15.817a5.2,5.2,0,0,0-2.793.635,2.086,2.086,0,0,0-1.079,1.9,1.748,1.748,0,0,0,1.142,1.65,13.607,13.607,0,0,0,2.158.762c.952.254,1.777.444,2.475.7l2.094.762a15.056,15.056,0,0,1,2.158,1.206A5.223,5.223,0,0,1,122.5,28.194Z" transform="translate(34.519 -2.425)" fill="#181818"/>
      <path id="Trazado_11" data-name="Trazado 11" d="M122.191,19.67V31.285a3.8,3.8,0,0,0,.889,2.6,3.108,3.108,0,0,0,2.412.952,4.152,4.152,0,0,0,2.983-1.523l1.968,3.427a8.246,8.246,0,0,1-5.649,2.285,7.186,7.186,0,0,1-5.268-2.158,7.755,7.755,0,0,1-2.158-5.776V19.67h-2.856V15.735h2.856V8.563h4.824v7.172h6.03v3.872h-6.03Z" transform="translate(46.257 -6.024)" fill="#181818"/>
    </g>
    <g id="Logo" transform="translate(0 10)">
      <g id="Grupo_1" data-name="Grupo 1" transform="translate(154.052 339.103)">
        <path id="Trazado_1" data-name="Trazado 1" d="M22.615,19.322l2.158,7.236L20.584,40.521l6.03-3.491,3.173-10.472-1.142-3.745,6.537,3.745-.444.317L32.707,33.6l12.059-6.982L9.16,6.057l6.157,20.564L9.16,47.122l6.093-3.491,5.141-17.073-3.11-10.346Z" transform="translate(10.325 6.828)" fill="#40308e" fill-rule="evenodd"/>
        <path id="Trazado_2" data-name="Trazado 2" d="M33.448,0A33.448,33.448,0,1,1,0,33.448,33.453,33.453,0,0,1,33.448,0Zm0,5.458A27.927,27.927,0,1,0,61.375,33.385,27.927,27.927,0,0,0,33.448,5.458Z" fill="#40308e" fill-rule="evenodd"/>
      </g>
    </g>
  </g>
</svg>
